<?xml version="1.0" encoding="UTF-8"?>
<svg width="360px" height="64px" viewBox="0 0 360 64" version="1.1" xmlns="http://www.w3.org/2000/svg" xmlns:xlink="http://www.w3.org/1999/xlink">
    <!-- Generator: Sketch 50.2 (55047) - http://www.bohemiancoding.com/sketch -->
    <title>MeetNow_logo_color</title>
    <desc>Created with Sketch.</desc>
    <defs></defs>
    <g id="Design-System" stroke="none" stroke-width="1" fill="none" fill-rule="evenodd">
        <g id="App-icon" transform="translate(-76.000000, -224.000000)">
            <g id="MeetNow_logo_color" transform="translate(76.000000, 224.000000)">
                <g>
                    <path d="M55.8800165,0 C59.6166741,0 62.6739395,3.0802139 62.6739395,6.84491979 L62.6739395,56.4705883 C62.6739395,60.235294 59.6166741,63.3155081 55.8800165,63.3155081 C52.0584347,63.3155081 49.0011695,60.235294 49.0011695,56.4705883 L49.0011695,32.2566844 L36.6871841,57.6684492 C35.5831716,59.8930482 33.4600707,61.0909092 31.3369697,61.0909092 C29.1289448,61.0909092 27.0058439,59.8074866 25.9867553,57.6684492 L13.5878459,32.2566844 L13.5878459,56.4705883 C13.5878459,60.235294 10.5305806,63.3155081 6.70899894,63.3155081 C3.05726533,63.3155081 0,60.235294 0,56.4705883 L0,6.84491979 C0,3.0802139 3.05726533,0 6.70899894,0 C10.2758085,0 12.3139854,2.48128343 13.757694,5.30481284 C14.2672382,6.33155081 24.7128948,27.9786096 31.3369697,41.5828876 C37.8761205,27.9786096 48.4067011,6.4171123 48.9162455,5.30481284 C50.27503,2.48128343 52.3132069,0 55.8800165,0 Z M111.760033,39.3582887 C112.269577,44.4919787 108.872616,47.0588235 104.031946,47.0588235 L81.4421516,47.0588235 C85.1788092,52.7914439 92.2275044,53.6470588 97.6626427,50.6524064 C100.380212,48.9411765 103.947021,49.9679145 105.560578,52.7058823 C107.174135,55.5294117 106.23997,59.1229947 103.522401,60.7486631 C99.8706676,62.8877006 95.7093899,64 91.3782639,64 C81.6119996,64 73.9688363,58.4385028 70.5718749,51.3368983 C67.9392298,45.8609625 68.0241538,39.1016043 70.3171027,33.540107 C73.2894441,26.2673797 80.6778353,20.1925134 90.2742515,20.1925134 C101.229452,20.1925134 110.401248,28.4064171 111.760033,39.3582887 Z M81.5270756,37.3048128 L98.8515793,37.3048128 C98.0872629,34.0534759 94.5204533,30.973262 90.1893274,30.973262 C85.9431256,30.973262 82.291392,34.0534759 81.5270756,37.3048128 Z M159.572266,39.3582887 C160.08181,44.4919787 156.684849,47.0588235 151.844179,47.0588235 L129.254385,47.0588235 C132.991042,52.7914439 140.039737,53.6470588 145.474876,50.6524064 C148.192445,48.9411765 151.759254,49.9679145 153.372811,52.7058823 C154.986368,55.5294117 154.052203,59.1229947 151.334634,60.7486631 C147.682901,62.8877006 143.521623,64 139.190497,64 C129.424233,64 121.781069,58.4385028 118.384108,51.3368983 C115.751463,45.8609625 115.836387,39.1016043 118.129336,33.540107 C121.101677,26.2673797 128.490068,20.1925134 138.086484,20.1925134 C149.041685,20.1925134 158.213481,28.4064171 159.572266,39.3582887 Z M129.339309,37.3048128 L146.663812,37.3048128 C145.899496,34.0534759 142.332686,30.973262 138.00156,30.973262 C133.755359,30.973262 130.103625,34.0534759 129.339309,37.3048128 Z M183.520844,49.6256684 C187.257502,49.6256684 190.314768,52.7058823 190.314768,56.4705883 C190.314768,60.235294 187.257502,63.3155081 183.520844,63.3155081 L182.246983,63.3155081 C172.225947,63.3155081 165.092328,55.3582887 165.092328,45.433155 L165.092328,13.7754011 C165.092328,10.0106952 168.149594,6.93048128 171.886251,6.93048128 C175.622909,6.93048128 178.680174,10.0106952 178.680174,13.7754011 L178.680174,20.5347593 L184.87963,20.5347593 C188.191667,20.5347593 190.824312,23.1871657 190.824312,26.5240642 C190.824312,29.7754011 188.191667,32.4278075 184.87963,32.4278075 L178.680174,32.4278075 L178.680174,45.433155 C178.680174,47.5721925 179.784186,49.6256684 182.246983,49.6256684 L183.520844,49.6256684 Z" id="Meet" fill="#282828" fill-rule="nonzero"></path>
                    <g id="Now" transform="translate(195.073892, 0.000000)" fill="#80C636" fill-rule="nonzero">
                        <path d="M43.7325008,0 C47.4691584,0 50.5264238,3.0802139 50.5264238,6.75935829 L50.5264238,56.4705883 C50.5264238,62.7165776 42.9681845,65.368984 38.6370587,61.1764706 C37.7878182,60.3208556 37.023502,59.0374331 36.3441096,58.0106951 C35.3250211,56.3850267 15.6226446,27.4652407 14.433708,25.7540107 L14.433708,56.4705883 C14.433708,60.235294 11.3764427,63.3155081 7.63978506,63.3155081 C3.90312741,63.3155081 0.845862085,60.235294 0.845862085,56.4705883 L0.845862085,6.75935829 C0.845862085,3.0802139 3.90312741,0 7.63978506,0 C9.93273406,0 11.6312148,1.11229946 13.0749234,2.90909092 C14.5186321,4.79144386 28.8707943,25.8395723 37.023502,37.8181819 L37.023502,6.75935829 C37.023502,3.0802139 39.9958432,0 43.7325008,0 Z" id="Path"></path>
                        <path d="M78.2116599,20.1925134 C90.1859492,20.1925134 99.9522135,30.0320855 99.9522135,42.0962567 C99.9522135,54.1604277 90.1859492,64 78.2116599,64 C66.2373708,64 56.4711065,54.1604277 56.4711065,42.0962567 C56.4711065,30.0320855 66.2373708,20.1925134 78.2116599,20.1925134 Z M78.2116599,33.7967915 C73.625762,33.7967915 69.9740284,37.4759358 69.9740284,42.0962567 C69.9740284,46.7165776 73.625762,50.395722 78.2116599,50.395722 C82.7975579,50.395722 86.4492914,46.7165776 86.4492914,42.0962567 C86.4492914,37.4759358 82.7975579,33.7967915 78.2116599,33.7967915 Z" id="Combined-Shape"></path>
                        <path d="M160.757824,20.9625669 C164.154785,22.4171124 165.853266,26.2673797 164.409558,29.7754011 L152.520192,59.1229947 C150.906636,63.0588235 147.764446,63.3155081 146.235814,63.3155081 C143.942865,63.3155081 141.225296,62.1176471 140.206207,59.6363636 L133.75198,43.5508021 L127.212829,59.6363636 C126.278665,61.9465241 124.07064,63.3155081 121.777691,63.3155081 C120.249058,63.3155081 116.512401,63.0588235 114.898844,59.1229947 L103.009479,29.7754011 C101.56577,26.2673797 103.264251,22.4171124 106.661212,20.9625669 C110.143098,19.5080213 114.049604,21.1336898 115.408388,24.6417113 L122.032463,40.9839572 L128.231918,25.7540107 C129.166082,23.4438503 131.374107,22.0748663 133.75198,22.0748663 C136.044929,22.0748663 138.252954,23.4438503 139.187119,25.7540107 L145.386573,40.9839572 L152.010648,24.6417113 C153.369433,21.1336898 157.360862,19.5080213 160.757824,20.9625669 Z" id="Path"></path>
                    </g>
                </g>
            </g>
        </g>
    </g>
</svg>